<svg width="41" height="41" viewBox="0 0 41 41" fill="none" xmlns="http://www.w3.org/2000/svg">
<path d="M11.8516 17.6172C11.5164 17.6165 11.1915 17.7328 10.9328 17.9459C10.6741 18.1589 10.4978 18.4556 10.4342 18.7847C10.3707 19.1138 10.4239 19.4547 10.5847 19.7488C10.7454 20.0429 11.0037 20.2717 11.315 20.3959C11.7755 19.6712 12.4001 19.0146 13.1528 18.442C13.0366 18.1952 12.8525 17.9866 12.622 17.8405C12.3916 17.6945 12.1244 17.617 11.8516 17.6172ZM23.4509 25.0204C22.8543 25.4889 21.6771 25.9934 20.5 25.9934C19.3229 25.9934 18.1417 25.4889 17.5491 25.0204C17.1768 24.7281 16.6402 24.7922 16.3479 25.1646C16.0557 25.5369 16.1197 26.0734 16.4921 26.3657C17.5211 27.1825 19.0946 27.707 20.5 27.707C21.9054 27.707 23.4789 27.1825 24.5119 26.3657C24.8843 26.0734 24.9483 25.5329 24.6561 25.1646C24.5152 24.9858 24.3092 24.8703 24.0833 24.8433C23.8573 24.8163 23.6299 24.88 23.4509 25.0204ZM35.2344 4.48438H5.76562C5.05693 4.48438 4.48438 5.05693 4.48438 5.76562V35.2344C4.48438 35.9431 5.05693 36.5156 5.76562 36.5156H35.2344C35.9431 36.5156 36.5156 35.9431 36.5156 35.2344V5.76562C36.5156 5.05693 35.9431 4.48438 35.2344 4.48438ZM30.3096 21.6972C30.4937 22.2377 30.5898 22.8022 30.5898 23.3828C30.5898 27.3627 26.0734 30.5898 20.5 30.5898C14.9266 30.5898 10.4102 27.3627 10.4102 23.3828C10.4102 22.8022 10.5062 22.2377 10.6904 21.6972C10.0853 21.4304 9.59035 20.9637 9.28843 20.3754C8.98651 19.787 8.89601 19.1128 9.0321 18.4656C9.16819 17.8185 9.5226 17.2378 10.0359 16.8209C10.5492 16.404 11.1903 16.1762 11.8516 16.1758C12.9366 16.1758 13.8775 16.7724 14.37 17.6572C15.8194 16.8645 17.5812 16.3439 19.499 16.2118L21.8373 10.9627C22.0095 10.5703 22.4459 10.3701 22.8583 10.4902L26.5259 11.5513C26.7543 11.1272 27.1176 10.7915 27.5584 10.5973C27.9991 10.4032 28.4921 10.3616 28.9591 10.4793C29.4261 10.597 29.8405 10.8671 30.1367 11.247C30.4328 11.6268 30.5937 12.0946 30.5938 12.5763C30.5938 13.7694 29.6249 14.7384 28.4317 14.7384C27.4908 14.7384 26.69 14.1338 26.3938 13.293L23.1025 12.344L21.3809 16.2078C23.3468 16.3279 25.1525 16.8524 26.634 17.6612C27.1265 16.7764 28.0674 16.1798 29.1524 16.1798C30.746 16.1798 32.0353 17.469 32.0353 19.0626C32.0312 20.2357 31.3226 21.2487 30.3096 21.6972ZM23.3828 21.9414C23.3828 22.3237 23.5347 22.6903 23.805 22.9606C24.0753 23.231 24.4419 23.3828 24.8242 23.3828C25.2065 23.3828 25.5731 23.231 25.8434 22.9606C26.1138 22.6903 26.2656 22.3237 26.2656 21.9414C26.2656 21.5591 26.1138 21.1925 25.8434 20.9222C25.5731 20.6519 25.2065 20.5 24.8242 20.5C24.4419 20.5 24.0753 20.6519 23.805 20.9222C23.5347 21.1925 23.3828 21.5591 23.3828 21.9414ZM29.1484 17.6172C28.8756 17.617 28.6084 17.6945 28.378 17.8405C28.1475 17.9866 27.9634 18.1952 27.8472 18.442C28.5999 19.0146 29.2245 19.6712 29.685 20.3959C29.9963 20.2717 30.2546 20.0429 30.4153 19.7488C30.5761 19.4547 30.6293 19.1138 30.5658 18.7847C30.5022 18.4556 30.3259 18.1589 30.0672 17.9459C29.8085 17.7328 29.4836 17.6165 29.1484 17.6172ZM14.7344 21.9414C14.7344 22.3237 14.8862 22.6903 15.1566 22.9606C15.4269 23.231 15.7935 23.3828 16.1758 23.3828C16.5581 23.3828 16.9247 23.231 17.195 22.9606C17.4653 22.6903 17.6172 22.3237 17.6172 21.9414C17.6172 21.5591 17.4653 21.1925 17.195 20.9222C16.9247 20.6519 16.5581 20.5 16.1758 20.5C15.7935 20.5 15.4269 20.6519 15.1566 20.9222C14.8862 21.1925 14.7344 21.5591 14.7344 21.9414Z" fill="white"/>
<rect x="0.5" y="0.5" width="40" height="40" stroke="black"/>
</svg>
