<svg width="41" height="41" viewBox="0 0 41 41" fill="none" xmlns="http://www.w3.org/2000/svg">
<path d="M31.3223 31.3291H26.7696V24.1934C26.7696 22.4919 26.7354 20.3018 24.395 20.3018C22.0221 20.3018 21.66 22.1537 21.66 24.0687V31.3291H17.1055V16.6562H21.4789V18.655H21.5387C22.1502 17.5036 23.6365 16.2855 25.8573 16.2855C30.4698 16.2855 31.324 19.323 31.324 23.2743V31.3291H31.3223ZM11.9635 14.649C11.6159 14.6494 11.2717 14.5813 10.9505 14.4484C10.6294 14.3156 10.3376 14.1206 10.0919 13.8748C9.84623 13.629 9.65149 13.3371 9.51885 13.0158C9.38621 12.6946 9.31828 12.3503 9.31896 12.0028C9.3193 11.4797 9.47472 10.9685 9.76559 10.5338C10.0564 10.0991 10.4697 9.76045 10.953 9.56061C11.4364 9.36076 11.9681 9.30874 12.481 9.41111C12.994 9.51348 13.465 9.76565 13.8346 10.1357C14.2042 10.5058 14.4558 10.9772 14.5575 11.4902C14.6592 12.0033 14.6065 12.535 14.406 13.018C14.2055 13.5011 13.8663 13.9139 13.4312 14.2042C12.9962 14.4945 12.4848 14.6493 11.9618 14.649H11.9635ZM14.2458 31.3291H9.67942V16.6562H14.2475V31.3291H14.2458ZM33.6029 5.125H7.39538C6.13804 5.125 5.125 6.11583 5.125 7.34071V33.6593C5.125 34.8842 6.13975 35.875 7.39367 35.875H33.5961C34.85 35.875 35.875 34.8842 35.875 33.6593V7.34071C35.875 6.11583 34.85 5.125 33.5961 5.125H33.6012H33.6029Z" fill="white"/>
<rect x="0.5" y="0.5" width="40" height="40" stroke="black"/>
</svg>
