<svg width="41" height="41" viewBox="0 0 41 41" fill="none" xmlns="http://www.w3.org/2000/svg">
<path d="M34.1709 5.125H6.82906C6.37815 5.12835 5.94666 5.30896 5.62781 5.62781C5.30896 5.94666 5.12835 6.37815 5.125 6.82906V34.1709C5.12835 34.6218 5.30896 35.0533 5.62781 35.3722C5.94666 35.691 6.37815 35.8716 6.82906 35.875H21.5506V23.985H17.5531V19.3341H21.5506V15.9131C21.5506 11.9413 23.9722 9.77594 27.5341 9.77594C28.7256 9.77594 29.9172 9.77594 31.1088 9.95531V14.0938H28.6616C26.7269 14.0938 26.3553 15.0163 26.3553 16.3616V19.3212H30.9678L30.3656 23.9722H26.3553V35.875H34.1709C34.6218 35.8716 35.0533 35.691 35.3722 35.3722C35.691 35.0533 35.8716 34.6218 35.875 34.1709V6.82906C35.8716 6.37815 35.691 5.94666 35.3722 5.62781C35.0533 5.30896 34.6218 5.12835 34.1709 5.125Z" fill="white"/>
<rect x="0.5" y="0.5" width="40" height="40" stroke="black"/>
</svg>
