<svg width="22" height="21" viewBox="0 0 22 21" fill="none" xmlns="http://www.w3.org/2000/svg">
<path d="M2.42773 6.53027C2.08398 6.18652 1.82259 5.79622 1.64355 5.35938C1.46452 4.92253 1.375 4.46419 1.375 3.98438C1.375 3.47591 1.4681 3.00684 1.6543 2.57715C1.84049 2.14746 2.09473 1.77148 2.41699 1.44922C2.73926 1.12695 3.1224 0.876302 3.56641 0.697266C4.01042 0.518229 4.47949 0.42513 4.97363 0.417969C5.44629 0.417969 5.90462 0.500326 6.34863 0.665039C6.79264 0.829753 7.18652 1.08398 7.53027 1.42773L11.3223 5.21973L10.3447 6.19727L8.25 4.10254L5.10254 7.25L7.19727 9.34473L6.21973 10.3223L2.42773 6.53027ZM4.98438 1.77148C4.67643 1.77148 4.38639 1.8252 4.11426 1.93262C3.84212 2.04004 3.60579 2.19759 3.40527 2.40527C3.20475 2.61296 3.0472 2.8457 2.93262 3.10352C2.81803 3.36133 2.75716 3.65495 2.75 3.98438C2.75 4.25651 2.78581 4.49284 2.85742 4.69336C2.92904 4.89388 3.03288 5.08366 3.16895 5.2627C3.30501 5.44173 3.45182 5.61003 3.60938 5.76758C3.76693 5.92513 3.9388 6.09342 4.125 6.27246L7.27246 3.125C7.08626 2.94596 6.91797 2.77409 6.76758 2.60938C6.61719 2.44466 6.45247 2.30143 6.27344 2.17969C6.0944 2.05794 5.9082 1.95768 5.71484 1.87891C5.52148 1.80013 5.27799 1.76432 4.98438 1.77148ZM22 21L15.2002 19.3027L12.0527 16.1553L13.0303 15.1777L15.3613 17.5195C15.4759 17.1471 15.6335 16.7962 15.834 16.4668C16.0345 16.1374 16.2744 15.833 16.5537 15.5537C16.833 15.2744 17.1338 15.0381 17.4561 14.8447C17.7783 14.6514 18.1328 14.4902 18.5195 14.3613L16.1777 12.0303L17.1553 11.0527L20.3027 14.2002L22 21ZM20.1094 19.1094L19.2285 15.5752C18.8919 15.6468 18.5804 15.7614 18.2939 15.9189C18.0075 16.0765 17.7461 16.2734 17.5098 16.5098C17.2734 16.7461 17.0765 17.0075 16.9189 17.2939C16.7614 17.5804 16.6468 17.8919 16.5752 18.2285L20.1094 19.1094ZM18.5625 1.0625C18.9421 1.0625 19.2965 1.13411 19.626 1.27734C19.9554 1.42057 20.249 1.61751 20.5068 1.86816C20.7646 2.11882 20.9616 2.40885 21.0977 2.73828C21.2337 3.06771 21.3053 3.42578 21.3125 3.8125C21.3125 4.17773 21.2445 4.52865 21.1084 4.86523C20.9723 5.20182 20.7718 5.49902 20.5068 5.75684L8.19629 18.0674C8.13184 18.4899 7.99935 18.8766 7.79883 19.2275C7.59831 19.5785 7.34766 19.89 7.04688 20.1621C6.74609 20.4342 6.40592 20.6383 6.02637 20.7744C5.64681 20.9105 5.24219 20.9857 4.8125 21H0V19.625C0.078776 19.625 0.161133 19.6143 0.24707 19.5928C0.333008 19.5713 0.411784 19.5391 0.483398 19.4961C0.662435 19.403 0.809245 19.2848 0.923828 19.1416C1.03841 18.9984 1.12793 18.8408 1.19238 18.6689C1.25684 18.4971 1.30339 18.318 1.33203 18.1318C1.36068 17.9456 1.375 17.7559 1.375 17.5625C1.375 17.14 1.44661 16.7389 1.58984 16.3594C1.73307 15.9798 1.94076 15.6361 2.21289 15.3281C2.48503 15.0202 2.79297 14.7695 3.13672 14.5762C3.48047 14.3828 3.87077 14.2503 4.30762 14.1787L16.6182 1.86816C16.876 1.61035 17.1732 1.41341 17.5098 1.27734C17.8464 1.14128 18.1973 1.06966 18.5625 1.0625ZM4.8125 19.625C5.09896 19.625 5.36751 19.5713 5.61816 19.4639C5.86881 19.3564 6.08724 19.2096 6.27344 19.0234C6.45964 18.8372 6.60645 18.6188 6.71387 18.3682C6.82129 18.1175 6.875 17.849 6.875 17.5625C6.875 17.276 6.82129 17.0075 6.71387 16.7568C6.60645 16.5062 6.45964 16.2878 6.27344 16.1016C6.08724 15.9154 5.86881 15.7686 5.61816 15.6611C5.36751 15.5537 5.09896 15.5 4.8125 15.5C4.52604 15.5 4.25749 15.5537 4.00684 15.6611C3.75618 15.7686 3.53776 15.9154 3.35156 16.1016C3.16536 16.2878 3.01855 16.5062 2.91113 16.7568C2.80371 17.0075 2.75 17.276 2.75 17.5625C2.75 18.3073 2.52083 18.9948 2.0625 19.625H4.8125ZM10.377 13.9424C10.1478 13.4912 9.87923 13.1117 9.57129 12.8037C9.26335 12.4958 8.88379 12.2272 8.43262 11.998L6.05859 14.3721C6.5026 14.5439 6.8929 14.7982 7.22949 15.1348C7.56608 15.4714 7.82389 15.8652 8.00293 16.3164L10.377 13.9424ZM19.5293 4.7793C19.7943 4.51432 19.9268 4.19206 19.9268 3.8125C19.9268 3.6263 19.891 3.45085 19.8193 3.28613C19.7477 3.12142 19.651 2.97819 19.5293 2.85645C19.4076 2.7347 19.2607 2.63444 19.0889 2.55566C18.917 2.47689 18.7415 2.44108 18.5625 2.44824C18.1829 2.44824 17.8607 2.58073 17.5957 2.8457L9.44238 10.9883C9.87923 11.2461 10.248 11.5254 10.5488 11.8262C10.8496 12.127 11.1289 12.4958 11.3867 12.9326L19.5293 4.7793Z" fill="#2C00EE"/>
</svg>
