<svg width="20" height="34" viewBox="0 0 20 34" fill="none" xmlns="http://www.w3.org/2000/svg">
<path d="M10.6333 14.9833C6.47167 13.9017 5.13334 12.7833 5.13334 11.0417C5.13334 9.04333 6.985 7.65 10.0833 7.65C13.3467 7.65 14.5567 9.20833 14.6667 11.5H18.7183C18.59 8.34667 16.665 5.45 12.8333 4.515V0.5H7.33334V4.46C3.77667 5.23 0.91667 7.54 0.91667 11.0783C0.91667 15.3133 4.41834 17.4217 9.53334 18.65C14.1167 19.75 15.0333 21.3633 15.0333 23.0683C15.0333 24.3333 14.135 26.35 10.0833 26.35C6.30667 26.35 4.82167 24.6633 4.62 22.5H0.58667C0.80667 26.515 3.81334 28.77 7.33334 29.5217V33.5H12.8333V29.5583C16.4083 28.88 19.25 26.8083 19.25 23.05C19.25 17.8433 14.795 16.065 10.6333 14.9833Z" fill="white"/>
</svg>
