<svg width="36" height="36" viewBox="0 0 36 36" fill="none" xmlns="http://www.w3.org/2000/svg">
<path d="M6.16663 0.5H30C31.4586 0.5 32.8576 1.07946 33.889 2.11091C34.9205 3.14236 35.5 4.54131 35.5 6V29.8333C35.5 31.292 34.9205 32.691 33.889 33.7224C32.8576 34.7539 31.4586 35.3333 30 35.3333H6.16663C4.70794 35.3333 3.30899 34.7539 2.27754 33.7224C1.24609 32.691 0.666626 31.292 0.666626 29.8333V6C0.666626 4.54131 1.24609 3.14236 2.27754 2.11091C3.30899 1.07946 4.70794 0.5 6.16663 0.5ZM6.16663 2.33333C5.19417 2.33333 4.26153 2.71964 3.5739 3.40727C2.88627 4.09491 2.49996 5.02754 2.49996 6V27.241L10.3705 19.3705L14.9538 23.9538L24.1205 14.7872L33.6666 24.3333V6C33.6666 5.02754 33.2803 4.09491 32.5927 3.40727C31.905 2.71964 30.9724 2.33333 30 2.33333H6.16663ZM14.9538 26.5462L10.3705 21.9628L2.49996 29.8333C2.49996 30.8058 2.88627 31.7384 3.5739 32.4261C4.26153 33.1137 5.19417 33.5 6.16663 33.5H30C30.9724 33.5 31.905 33.1137 32.5927 32.4261C33.2803 31.7384 33.6666 30.8058 33.6666 29.8333V26.9257L24.1205 17.3795L14.9538 26.5462ZM10.75 6C11.9655 6 13.1313 6.48289 13.9909 7.34243C14.8504 8.20197 15.3333 9.36776 15.3333 10.5833C15.3333 11.7989 14.8504 12.9647 13.9909 13.8242C13.1313 14.6838 11.9655 15.1667 10.75 15.1667C9.53438 15.1667 8.36859 14.6838 7.50905 13.8242C6.64951 12.9647 6.16663 11.7989 6.16663 10.5833C6.16663 9.36776 6.64951 8.20197 7.50905 7.34243C8.36859 6.48289 9.53438 6 10.75 6ZM10.75 7.83333C10.0206 7.83333 9.32114 8.12306 8.80542 8.63879C8.28969 9.15451 7.99996 9.85399 7.99996 10.5833C7.99996 11.3127 8.28969 12.0122 8.80542 12.5279C9.32114 13.0436 10.0206 13.3333 10.75 13.3333C11.4793 13.3333 12.1788 13.0436 12.6945 12.5279C13.2102 12.0122 13.5 11.3127 13.5 10.5833C13.5 9.85399 13.2102 9.15451 12.6945 8.63879C12.1788 8.12306 11.4793 7.83333 10.75 7.83333Z" fill="white"/>
</svg>
