<svg width="75" height="75" viewBox="0 0 75 75" fill="none" xmlns="http://www.w3.org/2000/svg">
<path d="M37.5 2.92509C37.5 1.30961 36.1882 -0.0118724 34.5776 0.113976C26.2603 0.763884 18.365 4.17384 12.1718 9.84623C5.25699 16.1795 0.965794 24.8736 0.144218 34.2143C-0.677357 43.5551 2.0303 52.8647 7.73338 60.3079C13.4365 67.751 21.7211 72.7874 30.9539 74.4242C40.1868 76.0611 49.6979 74.1795 57.6121 69.1505C65.5262 64.1215 71.2692 56.31 73.7087 47.2561C76.1482 38.2022 75.1072 28.5628 70.791 20.2384C66.9251 12.7827 60.6832 6.8665 53.0962 3.397C51.627 2.72517 49.9409 3.51517 49.3856 5.0322C48.8302 6.54924 49.6173 8.21701 51.0766 8.90996C57.2933 11.8619 62.4052 16.7747 65.5974 22.9313C69.2403 29.957 70.1189 38.0926 68.0599 45.7341C66.001 53.3756 61.154 59.9684 54.4745 64.2129C47.795 68.4573 39.7677 70.0453 31.9752 68.6639C24.1827 67.2824 17.1905 63.0317 12.3771 56.7497C7.56376 50.4678 5.2785 42.6105 5.97191 34.7269C6.66531 26.8434 10.2871 19.5056 16.1231 14.1604C21.2372 9.47634 27.7264 6.62018 34.579 5.9852C36.1876 5.83615 37.5 4.54058 37.5 2.92509Z" fill="url(#paint0_angular_155_689)"/>
<path d="M29.7976 21.7301C30.4709 21.7301 31.1186 21.843 31.7408 22.0689C32.3672 22.2947 32.9254 22.6548 33.4155 23.1491C33.9098 23.6435 34.2997 24.2997 34.5852 25.1179C34.875 25.9318 35.022 26.9311 35.0263 28.1158C35.0263 29.228 34.9006 30.2209 34.6491 31.0945C34.402 31.9638 34.0462 32.7031 33.5817 33.3125C33.1172 33.9219 32.5568 34.3864 31.9006 34.706C31.2443 35.0213 30.5114 35.179 29.7017 35.179C28.8281 35.179 28.0568 35.0107 27.3878 34.674C26.7188 34.3331 26.1797 33.8707 25.7706 33.2869C25.3658 32.6989 25.1207 32.0384 25.0355 31.3054H27.7649C27.8714 31.7827 28.0952 32.1534 28.4361 32.4176C28.777 32.6776 29.1989 32.8075 29.7017 32.8075C30.554 32.8075 31.2017 32.4368 31.6449 31.6953C32.0881 30.9496 32.3118 29.929 32.3161 28.6335H32.2266C32.0305 29.017 31.7663 29.3473 31.4339 29.6243C31.1016 29.897 30.7202 30.108 30.2898 30.2571C29.8636 30.4062 29.4098 30.4808 28.9283 30.4808C28.157 30.4808 27.4688 30.2997 26.8636 29.9375C26.2585 29.5753 25.7812 29.0767 25.4318 28.4418C25.0824 27.8068 24.9077 27.0824 24.9077 26.2685C24.9034 25.3906 25.1058 24.6087 25.5149 23.9226C25.924 23.2365 26.495 22.6996 27.228 22.3118C27.9652 21.9197 28.8217 21.7259 29.7976 21.7301ZM29.8168 23.9034C29.3864 23.9034 29.0028 24.0057 28.6662 24.2102C28.3338 24.4148 28.0696 24.6896 27.8736 25.0348C27.6818 25.38 27.5881 25.7656 27.5923 26.1918C27.5923 26.6222 27.6861 27.0099 27.8736 27.3551C28.0653 27.696 28.3253 27.9687 28.6534 28.1733C28.9858 28.3736 29.3651 28.4737 29.7912 28.4737C30.1108 28.4737 30.407 28.4141 30.6797 28.2947C30.9524 28.1754 31.1889 28.0114 31.3892 27.8026C31.5938 27.5895 31.7536 27.3445 31.8686 27.0675C31.9837 26.7905 32.0412 26.4964 32.0412 26.1854C32.0369 25.772 31.9389 25.3928 31.7472 25.0476C31.5554 24.7024 31.2912 24.4254 30.9545 24.2166C30.6179 24.0078 30.2386 23.9034 29.8168 23.9034ZM38.0337 35.1662C37.6119 35.1662 37.2496 35.017 36.9471 34.7188C36.6488 34.4162 36.4996 34.054 36.4996 33.6321C36.4996 33.2145 36.6488 32.8565 36.9471 32.5582C37.2496 32.2599 37.6119 32.1108 38.0337 32.1108C38.4428 32.1108 38.8008 32.2599 39.1076 32.5582C39.4144 32.8565 39.5678 33.2145 39.5678 33.6321C39.5678 33.9134 39.4954 34.1712 39.3505 34.4055C39.2099 34.6357 39.0245 34.821 38.7944 34.9616C38.5643 35.098 38.3107 35.1662 38.0337 35.1662ZM46.3833 35.2876C45.2839 35.2834 44.3379 35.0128 43.5453 34.4759C42.7569 33.9389 42.1497 33.1612 41.7235 32.1428C41.3017 31.1243 41.0929 29.8991 41.0971 28.4673C41.0971 27.0398 41.3081 25.8232 41.7299 24.8175C42.1561 23.8118 42.7633 23.0469 43.5517 22.5227C44.3443 21.9943 45.2882 21.7301 46.3833 21.7301C47.4785 21.7301 48.4203 21.9943 49.2086 22.5227C50.0012 23.0511 50.6106 23.8182 51.0368 24.8239C51.4629 25.8253 51.6738 27.0398 51.6696 28.4673C51.6696 29.9034 51.4565 31.1307 51.0304 32.1491C50.6085 33.1676 50.0034 33.9453 49.215 34.4822C48.4267 35.0192 47.4828 35.2876 46.3833 35.2876ZM46.3833 32.9929C47.1333 32.9929 47.7321 32.6158 48.1795 31.8615C48.627 31.1072 48.8485 29.9759 48.8443 28.4673C48.8443 27.4744 48.742 26.6477 48.5375 25.9872C48.3372 25.3267 48.0517 24.8303 47.6809 24.4979C47.3145 24.1655 46.8819 23.9993 46.3833 23.9993C45.6376 23.9993 45.041 24.3722 44.5936 25.1179C44.1461 25.8636 43.9203 26.9801 43.916 28.4673C43.916 29.473 44.0162 30.3125 44.2164 30.9858C44.421 31.6548 44.7086 32.1577 45.0794 32.4943C45.4501 32.8267 45.8848 32.9929 46.3833 32.9929Z" fill="white"/>
<path d="M12.9074 49V42.4545H15.02C15.4845 42.4545 15.8722 42.5387 16.1833 42.707C16.4965 42.8732 16.732 43.1044 16.8896 43.4006C17.0494 43.6946 17.1294 44.0323 17.1294 44.4137C17.1294 44.7951 17.0494 45.1317 16.8896 45.4237C16.732 45.7156 16.4976 45.9435 16.1865 46.1076C15.8754 46.2717 15.4898 46.3537 15.0296 46.3537H13.2302V45.8072H15.0136C15.3545 45.8072 15.6379 45.7507 15.8637 45.6378C16.0917 45.5249 16.2611 45.364 16.3719 45.1552C16.4848 44.9464 16.5413 44.6992 16.5413 44.4137C16.5413 44.1282 16.4848 43.8789 16.3719 43.6658C16.259 43.4506 16.0885 43.2844 15.8605 43.1673C15.6347 43.0501 15.3492 42.9915 15.004 42.9915H13.5051V49H12.9074ZM15.7934 46.0469L17.4042 49H16.7139L15.1191 46.0469H15.7934ZM19.838 49.1119C19.5418 49.1119 19.2712 49.0543 19.0262 48.9393C18.7812 48.8221 18.5862 48.6538 18.4413 48.4343C18.2964 48.2127 18.224 47.9442 18.224 47.6289C18.224 47.386 18.2698 47.1815 18.3614 47.0153C18.453 46.8491 18.583 46.7127 18.7513 46.6062C18.9197 46.4996 19.1189 46.4155 19.349 46.3537C19.5791 46.2919 19.8327 46.244 20.1096 46.2099C20.3845 46.1758 20.6167 46.146 20.8064 46.1204C20.9981 46.0948 21.1441 46.0543 21.2442 45.9989C21.3444 45.9435 21.3944 45.854 21.3944 45.7305V45.6154C21.3944 45.2809 21.2943 45.0178 21.094 44.826C20.8959 44.6321 20.6104 44.5352 20.2375 44.5352C19.8838 44.5352 19.5951 44.6129 19.3714 44.7685C19.1498 44.924 18.9942 45.1072 18.9047 45.3182L18.3646 45.1232C18.4754 44.8548 18.6288 44.6406 18.8248 44.4808C19.0209 44.3189 19.2403 44.2028 19.4832 44.1325C19.7261 44.06 19.9722 44.0238 20.2215 44.0238C20.409 44.0238 20.604 44.0483 20.8064 44.0973C21.0109 44.1463 21.2006 44.2315 21.3753 44.353C21.55 44.4723 21.6917 44.6396 21.8003 44.8548C21.909 45.0678 21.9633 45.3384 21.9633 45.6665V49H21.3944V48.2234H21.3593C21.2911 48.3683 21.1899 48.5089 21.0557 48.6452C20.9214 48.7816 20.7531 48.8935 20.5507 48.9808C20.3483 49.0682 20.1107 49.1119 19.838 49.1119ZM19.9147 48.5909C20.2172 48.5909 20.4793 48.5238 20.7009 48.3896C20.9225 48.2553 21.093 48.0774 21.2123 47.8558C21.3337 47.6321 21.3944 47.386 21.3944 47.1175V46.408C21.3518 46.4485 21.2805 46.4847 21.1803 46.5167C21.0823 46.5487 20.9683 46.5774 20.8383 46.603C20.7105 46.6264 20.5827 46.6467 20.4548 46.6637C20.327 46.6808 20.2119 46.6957 20.1096 46.7085C19.8327 46.7425 19.5961 46.7958 19.4001 46.8683C19.2041 46.9407 19.0539 47.0408 18.9495 47.1687C18.8451 47.2944 18.7929 47.4563 18.7929 47.6545C18.7929 47.9528 18.8994 48.1839 19.1125 48.348C19.3256 48.5099 19.593 48.5909 19.9147 48.5909ZM23.4767 49V44.0909H24.0296V44.8452H24.0711C24.1691 44.598 24.3396 44.3988 24.5825 44.2475C24.8275 44.0941 25.1045 44.0174 25.4134 44.0174C25.4603 44.0174 25.5125 44.0185 25.57 44.0206C25.6276 44.0227 25.6755 44.0249 25.7139 44.027V44.6055C25.6883 44.6012 25.6436 44.5948 25.5796 44.5863C25.5157 44.5778 25.4465 44.5735 25.3719 44.5735C25.1162 44.5735 24.8882 44.6278 24.6879 44.7365C24.4898 44.843 24.3332 44.9911 24.2181 45.1808C24.1031 45.3704 24.0455 45.5866 24.0455 45.8295V49H23.4767ZM26.6911 49V44.0909H27.2631V49H26.6911ZM26.9819 43.2472C26.8647 43.2472 26.7646 43.2077 26.6815 43.1289C26.5984 43.0479 26.5568 42.951 26.5568 42.8381C26.5568 42.7251 26.5984 42.6293 26.6815 42.5504C26.7646 42.4695 26.8647 42.429 26.9819 42.429C27.0991 42.429 27.1992 42.4695 27.2823 42.5504C27.3654 42.6293 27.407 42.7251 27.407 42.8381C27.407 42.951 27.3654 43.0479 27.2823 43.1289C27.1992 43.2077 27.0991 43.2472 26.9819 43.2472ZM30.7013 44.0909V44.5863H28.3586V44.0909H30.7013ZM29.0905 42.9148H29.6626V47.7184C29.6626 47.9229 29.6977 48.0838 29.768 48.201C29.8383 48.3161 29.93 48.3981 30.0429 48.4471C30.1558 48.494 30.2762 48.5174 30.404 48.5174C30.4786 48.5174 30.5425 48.5131 30.5958 48.5046C30.6491 48.494 30.6959 48.4833 30.7364 48.4727L30.8579 48.9872C30.8025 49.0085 30.7343 49.0277 30.6533 49.0447C30.5724 49.0639 30.4722 49.0735 30.3529 49.0735C30.1441 49.0735 29.9427 49.0277 29.7488 48.9361C29.5571 48.8445 29.3994 48.7081 29.2758 48.527C29.1523 48.3459 29.0905 48.1211 29.0905 47.8526V42.9148ZM32.3896 50.8409C32.2766 50.8409 32.1712 50.8303 32.0732 50.8089C31.9751 50.7876 31.8974 50.7642 31.8398 50.7386L31.9933 50.2369C32.1871 50.2965 32.3597 50.3178 32.511 50.3008C32.6623 50.2859 32.7965 50.2177 32.9137 50.0962C33.0309 49.9769 33.1353 49.7937 33.2269 49.5465L33.4059 49.0479L31.6001 44.0909H32.217L33.6744 48.2489H33.7191L35.1765 44.0909H35.7933L33.7159 49.7766C33.6286 50.0131 33.521 50.2102 33.3931 50.3679C33.2653 50.5277 33.1172 50.646 32.9489 50.7227C32.7827 50.8015 32.5962 50.8409 32.3896 50.8409ZM43.1098 44.0909C43.0736 43.7266 42.9127 43.4368 42.6272 43.2216C42.3417 43.0064 41.9827 42.8988 41.5502 42.8988C41.2455 42.8988 40.977 42.951 40.7448 43.0554C40.5146 43.1598 40.3335 43.3047 40.2014 43.4901C40.0715 43.6733 40.0065 43.8821 40.0065 44.1165C40.0065 44.2891 40.0438 44.4403 40.1183 44.5703C40.1929 44.7003 40.2931 44.8121 40.4188 44.9059C40.5466 44.9975 40.6872 45.0763 40.8406 45.1424C40.9962 45.2085 41.1528 45.2638 41.3105 45.3086L42.0008 45.5067C42.2096 45.5643 42.4184 45.6378 42.6272 45.7273C42.836 45.8168 43.0267 45.9297 43.1993 46.0661C43.374 46.2003 43.5136 46.3654 43.618 46.5614C43.7245 46.7553 43.7778 46.9886 43.7778 47.2614C43.7778 47.6108 43.6872 47.9251 43.5061 48.2042C43.325 48.4833 43.0651 48.7049 42.7263 48.869C42.3875 49.0309 41.9816 49.1119 41.5086 49.1119C41.0633 49.1119 40.6766 49.0384 40.3485 48.8913C40.0203 48.7422 39.7625 48.5366 39.575 48.2745C39.3875 48.0124 39.282 47.7088 39.2586 47.3636H39.8722C39.8936 47.6214 39.9788 47.8398 40.1279 48.0188C40.2771 48.1978 40.471 48.3342 40.7096 48.4279C40.9482 48.5195 41.2146 48.5653 41.5086 48.5653C41.8346 48.5653 42.1244 48.511 42.3779 48.4023C42.6336 48.2915 42.8339 48.1381 42.9788 47.9421C43.1258 47.744 43.1993 47.5138 43.1993 47.2518C43.1993 47.0302 43.1418 46.8448 43.0267 46.6957C42.9117 46.5444 42.7508 46.4176 42.5441 46.3153C42.3396 46.2131 42.102 46.1225 41.8314 46.0437L41.0484 45.8136C40.5349 45.6602 40.1365 45.4482 39.8531 45.1776C39.5697 44.907 39.428 44.5618 39.428 44.142C39.428 43.7905 39.5218 43.4815 39.7093 43.2152C39.8989 42.9467 40.1546 42.7379 40.4763 42.5888C40.8002 42.4375 41.1634 42.3619 41.5661 42.3619C41.9731 42.3619 42.3332 42.4364 42.6464 42.5856C42.9596 42.7347 43.2078 42.9403 43.3911 43.2024C43.5764 43.4624 43.6755 43.7585 43.6883 44.0909H43.1098ZM47.0154 49.1023C46.5764 49.1023 46.194 48.9925 45.868 48.7731C45.5441 48.5536 45.2927 48.2532 45.1137 47.8718C44.9347 47.4904 44.8453 47.0558 44.8453 46.5678C44.8453 46.0756 44.9358 45.6378 45.1169 45.2543C45.3002 44.8707 45.5537 44.5703 45.8776 44.353C46.2014 44.1335 46.5775 44.0238 47.0058 44.0238C47.3339 44.0238 47.6311 44.0877 47.8975 44.2156C48.1638 44.3413 48.3833 44.5192 48.5558 44.7493C48.7306 44.9773 48.8403 45.2436 48.885 45.5483H48.3097C48.2501 45.2713 48.1063 45.0348 47.8783 44.8388C47.6524 44.6406 47.3648 44.5415 47.0154 44.5415C46.7021 44.5415 46.4252 44.6268 46.1844 44.7972C45.9436 44.9656 45.7551 45.201 45.6187 45.5036C45.4845 45.804 45.4173 46.1523 45.4173 46.5487C45.4173 46.9471 45.4834 47.2997 45.6155 47.6065C45.7476 47.9112 45.933 48.1499 46.1716 48.3224C46.4124 48.495 46.6936 48.5813 47.0154 48.5813C47.2327 48.5813 47.4308 48.5408 47.6098 48.4599C47.7909 48.3768 47.9422 48.2596 48.0637 48.1083C48.1872 47.957 48.2703 47.777 48.3129 47.5682H48.8882C48.8456 47.8643 48.7401 48.1286 48.5718 48.3608C48.4056 48.5909 48.1894 48.772 47.923 48.9041C47.6588 49.0362 47.3563 49.1023 47.0154 49.1023ZM52.0155 49.1023C51.5915 49.1023 51.2165 48.9947 50.8905 48.7795C50.5667 48.5643 50.3131 48.267 50.1299 47.8878C49.9466 47.5064 49.855 47.0664 49.855 46.5678C49.855 46.065 49.9466 45.6229 50.1299 45.2415C50.3131 44.858 50.5667 44.5597 50.8905 44.3466C51.2165 44.1314 51.5915 44.0238 52.0155 44.0238C52.4395 44.0238 52.8135 44.1314 53.1373 44.3466C53.4612 44.5618 53.7148 44.8601 53.898 45.2415C54.0834 45.6229 54.176 46.065 54.176 46.5678C54.176 47.0664 54.0844 47.5064 53.9012 47.8878C53.718 48.267 53.4633 48.5643 53.1373 48.7795C52.8135 48.9947 52.4395 49.1023 52.0155 49.1023ZM52.0155 48.5813C52.3564 48.5813 52.6452 48.4897 52.8817 48.3065C53.1182 48.1232 53.2971 47.8793 53.4186 47.5746C53.5422 47.2699 53.604 46.9343 53.604 46.5678C53.604 46.2013 53.5422 45.8647 53.4186 45.5579C53.2971 45.2511 53.1182 45.005 52.8817 44.8196C52.6452 44.6342 52.3564 44.5415 52.0155 44.5415C51.6768 44.5415 51.3881 44.6342 51.1494 44.8196C50.9129 45.005 50.7329 45.2511 50.6093 45.5579C50.4878 45.8647 50.4271 46.2013 50.4271 46.5678C50.4271 46.9343 50.4878 47.2699 50.6093 47.5746C50.7329 47.8793 50.9129 48.1232 51.1494 48.3065C51.3859 48.4897 51.6746 48.5813 52.0155 48.5813ZM55.4249 49V44.0909H55.9778V44.8452H56.0194C56.1174 44.598 56.2878 44.3988 56.5307 44.2475C56.7757 44.0941 57.0527 44.0174 57.3617 44.0174C57.4086 44.0174 57.4608 44.0185 57.5183 44.0206C57.5758 44.0227 57.6238 44.0249 57.6621 44.027V44.6055C57.6365 44.6012 57.5918 44.5948 57.5279 44.5863C57.464 44.5778 57.3947 44.5735 57.3201 44.5735C57.0645 44.5735 56.8365 44.6278 56.6362 44.7365C56.438 44.843 56.2814 44.9911 56.1664 45.1808C56.0513 45.3704 55.9938 45.5866 55.9938 45.8295V49H55.4249ZM60.4682 49.1023C60.0101 49.1023 59.6138 48.9957 59.2793 48.7827C58.9448 48.5675 58.6859 48.2702 58.5027 47.891C58.3216 47.5096 58.231 47.0707 58.231 46.5742C58.231 46.0799 58.3216 45.641 58.5027 45.2575C58.6859 44.8718 58.9384 44.5703 59.2601 44.353C59.584 44.1335 59.9579 44.0238 60.3819 44.0238C60.6483 44.0238 60.905 44.0728 61.1522 44.1708C61.3993 44.2667 61.6209 44.4148 61.8169 44.6151C62.0151 44.8132 62.1717 45.0636 62.2868 45.3661C62.4018 45.6665 62.4593 46.0224 62.4593 46.4336V46.7148H58.6241V46.2131H61.8777C61.8777 45.8977 61.8137 45.6143 61.6859 45.3629C61.5602 45.1094 61.3844 44.9091 61.1586 44.7621C60.9348 44.6151 60.676 44.5415 60.3819 44.5415C60.0708 44.5415 59.7971 44.6246 59.5605 44.7908C59.324 44.957 59.1387 45.1765 59.0044 45.4492C58.8723 45.7219 58.8052 46.0202 58.8031 46.3441V46.6445C58.8031 47.0344 58.8702 47.3754 59.0044 47.6673C59.1408 47.957 59.3336 48.1818 59.5829 48.3416C59.8322 48.5014 60.1273 48.5813 60.4682 48.5813C60.7005 48.5813 60.9039 48.5451 61.0787 48.4727C61.2555 48.4002 61.4036 48.3033 61.5229 48.1818C61.6444 48.0582 61.736 47.9229 61.7978 47.7759L62.3379 47.9517C62.2633 48.1584 62.1408 48.3491 61.9703 48.5238C61.802 48.6985 61.5911 48.8391 61.3375 48.9457C61.0861 49.0501 60.7963 49.1023 60.4682 49.1023Z" fill="white"/>
<defs>
<radialGradient id="paint0_angular_155_689" cx="0" cy="0" r="1" gradientUnits="userSpaceOnUse" gradientTransform="translate(37.5 37.5) rotate(-71.5651) scale(39.5285)">
<stop stop-color="#2F00FE"/>
<stop offset="1" stop-color="#A18CFF"/>
</radialGradient>
</defs>
</svg>
