<svg width="17" height="20" viewBox="0 0 17 20" fill="none" xmlns="http://www.w3.org/2000/svg">
<path d="M7.18627 17.166C7.10893 17.2788 6.98995 17.3563 6.85552 17.3813C6.72108 17.4064 6.5822 17.377 6.46941 17.2997L4.20146 15.7444C4.08868 15.667 4.01124 15.5481 3.98618 15.4136C3.96112 15.2792 3.99049 15.1403 4.06783 15.0275C4.14518 14.9147 4.26415 14.8373 4.39859 14.8123C4.53302 14.7872 4.67191 14.8166 4.78469 14.8939L7.05264 16.4492C7.16542 16.5265 7.24286 16.6455 7.26792 16.7799C7.29298 16.9144 7.26361 17.0533 7.18627 17.166ZM15.4698 15.8754L11.8838 19.2204C11.7358 19.3605 11.554 19.4598 11.3562 19.5086C11.1583 19.5574 10.9512 19.554 10.7551 19.4988C10.6213 19.4657 10.495 19.4074 10.3831 19.327C10.1595 19.1738 9.99372 18.9501 9.91228 18.6916L9.00983 15.7073L4.7716 12.8009L1.6626 13.0342C1.39211 13.0514 1.12367 12.9774 0.900194 12.824C0.784868 12.7486 0.685006 12.6518 0.605971 12.5389C0.483761 12.3758 0.40597 12.1838 0.380208 11.9817C0.354445 11.7795 0.381591 11.5742 0.458993 11.3856L2.28732 6.83532C2.35636 6.66497 2.46326 6.51257 2.59992 6.38964C2.73657 6.26671 2.8994 6.17648 3.07608 6.12578L6.95197 5.03241C7.6076 4.20345 8.38548 3.47902 9.25893 2.88396C11.5294 1.33571 13.9252 0.957117 15.1564 0.863603C15.4305 0.843588 15.7033 0.917352 15.93 1.07279C16.1566 1.22822 16.3237 1.4561 16.4038 1.71901C16.746 2.89149 17.237 5.26016 16.5966 7.92626C16.3629 8.93321 15.9781 9.89899 15.4554 10.7908L15.8475 14.8839C15.8639 15.067 15.8384 15.2514 15.7729 15.4232C15.7075 15.595 15.6038 15.7496 15.4698 15.8754ZM5.45405 12.0184L9.49384 14.7888C17.305 10.7983 16.0042 4.01879 15.4083 2.01584C15.3972 1.97875 15.3744 1.94623 15.3434 1.92308C15.3123 1.89992 15.2747 1.88736 15.236 1.88724C13.1338 2.05039 6.28419 3.24066 5.45405 12.0184ZM4.44156 11.793C4.65729 9.70058 5.196 7.88173 6.067 6.35329L3.35388 7.11865C3.32921 7.12655 3.30654 7.13966 3.28739 7.15709C3.26824 7.17453 3.25307 7.19588 3.2429 7.2197L1.41458 11.77C1.40295 11.7966 1.39904 11.826 1.4033 11.8547C1.40756 11.8834 1.41982 11.9103 1.43867 11.9324C1.45428 11.9572 1.47658 11.977 1.503 11.9896C1.52942 12.0022 1.55886 12.007 1.58791 12.0035L4.44156 11.793ZM14.8212 14.9825L14.5465 12.1161C13.4439 13.4961 11.9457 14.6779 10.0689 15.652L10.9007 18.3899C10.9079 18.4182 10.923 18.444 10.9443 18.4641C10.9655 18.4842 10.9921 18.4978 11.0208 18.5035C11.0482 18.5131 11.0777 18.5148 11.106 18.5085C11.1344 18.5021 11.1603 18.4879 11.181 18.4674L14.7669 15.1225C14.7855 15.1044 14.7999 15.0825 14.8093 15.0584C14.8187 15.0343 14.8227 15.0084 14.8212 14.9825ZM11.3621 7.73371C11.5023 7.82983 11.6678 7.88224 11.8378 7.88429C12.0078 7.88634 12.1745 7.83794 12.317 7.74522C12.4594 7.6525 12.5712 7.51962 12.6381 7.36339C12.705 7.20716 12.7241 7.03458 12.693 6.86749C12.6618 6.7004 12.5818 6.5463 12.4631 6.42467C12.3444 6.30305 12.1923 6.21936 12.026 6.18419C11.8597 6.14903 11.6867 6.16396 11.5289 6.22711C11.3711 6.29025 11.2356 6.39877 11.1394 6.53895C11.0105 6.72692 10.9616 6.95839 11.0033 7.18245C11.0451 7.40651 11.1742 7.60481 11.3621 7.73371Z" fill="white"/>
</svg>
