<svg width="22" height="21" viewBox="0 0 22 21" fill="none" xmlns="http://www.w3.org/2000/svg">
<path d="M20.5624 7.3L14.5124 6.775L12.1499 1.2125C11.7249 0.2 10.2749 0.2 9.84991 1.2125L7.48741 6.7875L1.44991 7.3C0.349908 7.3875 -0.100092 8.7625 0.737408 9.4875L5.32491 13.4625L3.94991 19.3625C3.69991 20.4375 4.86241 21.2875 5.81241 20.7125L10.9999 17.5875L16.1874 20.725C17.1374 21.3 18.2999 20.45 18.0499 19.375L16.6749 13.4625L21.2624 9.4875C22.0999 8.7625 21.6624 7.3875 20.5624 7.3ZM10.9999 15.25L6.29991 18.0875L7.54991 12.7375L3.39991 9.1375L8.87491 8.6625L10.9999 3.625L13.1374 8.675L18.6124 9.15L14.4624 12.75L15.7124 18.1L10.9999 15.25Z" fill="#CCCCCC"/>
</svg>
