<svg width="19" height="31" viewBox="0 0 19 31" fill="none" xmlns="http://www.w3.org/2000/svg">
<path d="M7.23641 30.875C6.92322 30.875 6.66697 30.7611 6.46766 30.5333C6.26836 30.3056 6.19718 30.0351 6.25412 29.7219L7.79162 18.9167H1.81245C1.38537 18.9167 1.12172 18.8028 1.02149 18.575C0.922411 18.3472 0.986758 18.034 1.21454 17.6354L10.952 0.594792C11.009 0.452431 11.1229 0.338542 11.2937 0.253125C11.4645 0.167708 11.6211 0.125 11.7635 0.125C12.0767 0.125 12.3329 0.238889 12.5322 0.466667C12.7315 0.694445 12.8027 0.96493 12.7458 1.27812L11.2083 12.0833H17.1875C17.6145 12.0833 17.8776 12.1972 17.9767 12.425C18.0769 12.6528 18.0131 12.966 17.7854 13.3646L8.04787 30.4052C7.99092 30.5476 7.87704 30.6615 7.7062 30.7469C7.53537 30.8323 7.37877 30.875 7.23641 30.875Z" fill="url(#paint0_linear_32_148)"/>
<defs>
<linearGradient id="paint0_linear_32_148" x1="5.39996" y1="4.84" x2="16.06" y2="29.03" gradientUnits="userSpaceOnUse">
<stop stop-color="#EF35AC"/>
<stop offset="0.526042" stop-color="#70C2D7"/>
<stop offset="1" stop-color="#01A5FF"/>
</linearGradient>
</defs>
</svg>
