<svg width="38" height="36" viewBox="0 0 38 36" fill="none" xmlns="http://www.w3.org/2000/svg">
<path d="M26 21C26.8667 21 27.5833 20.7167 28.15 20.15C28.7167 19.5833 29 18.8667 29 18C29 17.1333 28.7167 16.4167 28.15 15.85C27.5833 15.2833 26.8667 15 26 15C25.1333 15 24.4167 15.2833 23.85 15.85C23.2833 16.4167 23 17.1333 23 18C23 18.8667 23.2833 19.5833 23.85 20.15C24.4167 20.7167 25.1333 21 26 21ZM4 32V4V32ZM4 36C2.9 36 1.958 35.6087 1.174 34.826C0.391333 34.042 0 33.1 0 32V4C0 2.9 0.391333 1.958 1.174 1.174C1.958 0.391333 2.9 0 4 0H32C33.1 0 34.042 0.391333 34.826 1.174C35.6087 1.958 36 2.9 36 4V9H32V4H4V32H32V27H36V32C36 33.1 35.6087 34.042 34.826 34.826C34.042 35.6087 33.1 36 32 36H4ZM20 28C18.9 28 17.9587 27.6087 17.176 26.826C16.392 26.042 16 25.1 16 24V12C16 10.9 16.392 9.958 17.176 9.174C17.9587 8.39133 18.9 8 20 8H34C35.1 8 36.042 8.39133 36.826 9.174C37.6087 9.958 38 10.9 38 12V24C38 25.1 37.6087 26.042 36.826 26.826C36.042 27.6087 35.1 28 34 28H20Z" fill="white"/>
</svg>
